<?xml version="1.0" encoding="UTF-8"?>
<!DOCTYPE svg PUBLIC "-//W3C//DTD SVG 1.1//EN" "http://www.w3.org/Graphics/SVG/1.1/DTD/svg11.dtd">
<!-- Creator: CorelDRAW 2020 (64-Bit) -->
<svg xmlns="http://www.w3.org/2000/svg" xml:space="preserve" width="1.66666in" height="1.66666in" version="1.1" style="shape-rendering:geometricPrecision; text-rendering:geometricPrecision; image-rendering:optimizeQuality; fill-rule:evenodd; clip-rule:evenodd"
viewBox="0 0 1666.66 1666.66"
 xmlns:xlink="http://www.w3.org/1999/xlink"
 xmlns:xodm="http://www.corel.com/coreldraw/odm/2003">
 <defs>
  <path d="..." fill="currentColor"/>
 </defs>
 <g id="Layer_x0020_1">
  <metadata id="CorelCorpID_0Corel-Layer"/>
  <g id="_2645015767056">
   <path class="fil0" d="M408.18 906.09c0,37.28 8.5,68.22 18.79,94.06 9.4,23.6 27.53,54.74 44.4,72.33l108.35 113.45c47.41,54.25 136.98,137.43 188.35,189.1l16.09 15.04c11.44,9.93 20.84,17.92 28.71,29.66 28.9,-19.35 74.75,-71.98 102.93,-95.53l93.77 -93.01c0.73,-0.87 2.78,-3.41 3.51,-4.28 3.02,-3.6 2.69,-3.3 5.34,-6.33 6.74,-7.72 11.74,-12.37 19.17,-19.74 63.35,-62.86 149.88,-176.02 189.06,-254.55 31.63,-63.42 60.96,-146.01 60.96,-238.67 -11.83,4.78 -13.59,22.38 -28.94,41.11l-112.13 109.68c-190.86,192.12 -282.04,96.58 -325.09,141.85 -97.89,102.93 -255.4,44.76 -282.45,-61.56 -9.66,-37.95 -7.65,-73.07 13,-102.83 10.39,-14.98 28.25,-29.87 42,-43.61 15.22,-15.22 27.59,-27.58 42.8,-42.8l41.61 -40.11c0.6,-0.54 1.46,-1.3 2.06,-1.84 1.73,-1.6 7.58,-7.44 9.94,-9.51 45.57,-39.94 125.56,-41.12 174.59,-3.58l15.99 15.14c33.33,36.39 53.5,34.31 88.52,-0.95 12.3,-12.38 24.74,-22.1 34.04,-36 -14.88,-55.72 -234.34,-223.17 -413.45,-43.78 -84.09,84.23 -181.91,152.58 -181.91,277.25z"/>
   <path class="fil0" d="M626.09 528.64c14.39,-1.2 25.81,-8.51 41.39,-13.09 104.8,-30.82 133.52,7.8 167.65,-30.8 0.19,-0.21 5.34,-6.22 5.39,-6.28l3.87 -3.91c0.81,-0.78 3.27,-2.92 4.1,-3.68 46.06,-41.97 67.47,-55.09 139.48,-55.09 116.15,0 210.72,152.85 119.73,244.26l-128.66 120.38c-50.49,42.48 -66.11,40.06 -123.38,40.06 -24.67,0 -52.9,-17.06 -68.49,-28.79 -41.52,-31.25 -40.28,-70.83 -97.86,-13.04 -12.91,12.96 -26.22,23.34 -36,37.94 25.89,29.79 27.08,38.96 67.25,68.94 94.09,70.22 220.64,72.39 310.83,5.61 15.44,-11.43 21.84,-17.16 35.37,-30.78 14.35,-14.45 21.09,-20.13 36.79,-33.25l96.5 -90.28c73.22,-72.78 84.74,-178.24 42.04,-275.55 -4.37,-9.97 -8.24,-14.66 -12.66,-22.36 -17,-29.65 -21.12,-34.16 -47.85,-61.11 -94.32,-95.12 -255.63,-111.1 -367.7,-31.04 -16.76,11.97 -24.46,21.56 -39.04,34.9l-56.35 52.6c-32.67,30.9 -59.78,45.6 -92.42,94.36z"/>
   <path class="fil0" d="M353.7 660.94c0,71.77 4.44,87.3 19.46,151.76 9.97,-14.34 11.57,-36.24 44.4,-80.12l39.45 -42.26c0.59,-0.53 1.47,-1.28 2.08,-1.81 64.82,-56.63 16.99,-38.84 49.02,-114.41l34.06 -55.45c0.52,-0.61 1.27,-1.49 1.79,-2.1l217.42 -195.06c21.56,-17.74 52.14,-38.69 82.62,-45.8l0 -7.78c-164.18,0 -273.48,21.38 -387.23,134.2 -5.71,5.67 -9.25,8.95 -13.29,13.95 -55.13,68.13 -89.78,147.28 -89.78,244.87z"/>
  </g>
 </g>
</svg>
